<?xml version="1.0" encoding="UTF-8"?>
<svg id="_レイヤー_1" data-name="レイヤー 1" xmlns="http://www.w3.org/2000/svg" viewBox="0 0 326.81 50">
  <path fill="currentColor" d="M271.17,28.61v-5.32c0-6.02-4.88-10.9-10.9-10.9s-10.9,4.88-10.9,10.9v7.99c0,6.02,4.88,10.9,10.9,10.9s10.9-4.88,10.9-10.9h-7.53c0,1.86-1.51,3.37-3.37,3.37s-3.37-1.51-3.37-3.37v-2.66h14.26ZM260.28,19.92c1.86,0,3.37,1.51,3.37,3.37h-6.73c0-1.86,1.51-3.37,3.37-3.37Z"/>
  <path fill="currentColor" d="M60.18,13.56c-6.17,0-11.18,5-11.18,11.18l-.09,6.41c0,6.17,5,11.18,11.18,11.18s11.18-5,11.18-11.18l.09-6.41c0-6.17-5-11.18-11.18-11.18ZM60.09,34.61c-1.91,0-3.45-1.55-3.45-3.45l.09-6.41c0-1.91,1.55-3.45,3.45-3.45s3.45,1.55,3.45,3.45l-.09,6.41c0,1.91-1.55,3.45-3.45,3.45Z"/>
  <path fill="currentColor" d="M287.6,41.22c4.94,0,8.94-4,8.94-8.94s-4-8.94-8.94-8.94h0s-1.23,0-1.23,0h0c-1.08,0-1.95-.87-1.95-1.95s.87-1.95,1.95-1.95h8.65v-6.99h-8.65c-4.94,0-8.94,4-8.94,8.94s4,8.94,8.94,8.94h1.23c1.08,0,1.95.87,1.95,1.95s-.87,1.95-1.95,1.95h0s-8.65,0-8.65,0v6.99h8.65Z"/>
  <path fill="currentColor" d="M233.55,41.67c4.94,0,8.94-4,8.94-8.94,0-2.05-.7-3.94-1.86-5.45,1.16-1.51,1.86-3.39,1.86-5.45,0-1.7-.48-3.28-1.31-4.64v-5.66h-6.99v1.39l-3.12-.03c-4.94,0-8.94,4-8.94,8.94s4,8.94,8.94,8.94h2.47c1.08,0,1.95.87,1.95,1.95s-.87,1.95-1.95,1.95h0s-9.88,0-9.88,0v6.99h9.88ZM231.08,23.79h0c-1.08,0-1.95-.87-1.95-1.95s.87-1.95,1.95-1.95h0s2.47,0,2.47,0h0c1.08,0,1.95.87,1.95,1.95s-.87,1.95-1.95,1.95h0s-2.47,0-2.47,0Z"/>
  <path fill="currentColor" d="M0,13.62v8.63h1.53v27.75h7.7v-14.3s3.05,0,3.05,0c6.1,0,11.04-4.94,11.04-11.04s-4.94-11.04-11.04-11.04H0ZM12.27,27.07h0s-3.05,0-3.05,0v-4.83s3.05,0,3.05,0h0c1.33,0,2.41,1.08,2.41,2.41s-1.08,2.41-2.41,2.41Z"/>
  <path fill="currentColor" d="M114.85,13.62v6.99h1.23v20.84h6.9v-9.95h2.47c4.94,0,8.94-4,8.94-8.94s-4-8.94-8.94-8.94h-10.61ZM125.45,24.51h0s-2.47,0-2.47,0v-3.91h2.47c1.08,0,1.95.87,1.95,1.95s-.87,1.95-1.95,1.95Z"/>
  <path fill="currentColor" d="M204.45,13.25c-1.87,0-3.6.54-5.07,1.46h-5.32v26.73h8.3v-18.59c0-1.16.94-2.1,2.1-2.1s2.1.94,2.1,2.1h0v18.59h7.51v-18.59c0-5.3-4.3-9.6-9.6-9.6Z"/>
  <path fill="currentColor" d="M98.27,13.48c-2.09,0-4.02.71-5.56,1.9-1.54-1.19-3.46-1.9-5.56-1.9-1.77,0-3.42.51-4.82,1.39h-5.05v26.58h7.88v-18.84c0-1.1.89-1.99,1.99-1.99s1.99.89,1.99,1.99h0v18.84h7.13v-18.84c0-1.1.89-1.99,1.99-1.99s1.99.89,1.99,1.99h0v18.84h7.13v-18.84c0-5.04-4.08-9.12-9.12-9.12Z"/>
  <path fill="currentColor" d="M43.97,14.49c-2.63,0-5.02,1.03-6.81,2.69v-3.63h-7.85v27.9h7.85v-17.33c2.13-.77,4.41-1.21,6.81-1.21v-8.42Z"/>
  <path fill="currentColor" d="M319.09,30.48c0,1.91-1.55,3.45-3.45,3.45s-3.45-1.55-3.45-3.45v-6.19h9.19v-7.21h-9.19v-5.04h-7.72v18.44c0,6.17,5,11.18,11.18,11.18s11.18-5,11.18-11.18h-7.72Z"/>
  <path fill="currentColor" d="M152.53,33.71c-1.91,0-3.45-1.55-3.45-3.45v-6.19h7v-7.21h-7v-5.04h-7.72v18.44c0,6.17,5,11.18,11.18,11.18h5.73v-7.72h-5.73Z"/>
  <polygon fill="currentColor" points="185 41.44 185 35.37 182.77 35.37 182.77 0 172.02 0 172.02 6.08 174.25 6.08 174.25 35.37 172.02 35.37 172.02 41.44 185 41.44"/>
</svg>
